PathFileType	4	(X/Y/Z)	C:\Git\research_data\Projects\torsion_deformities_healthy_kinematics\simulations\TD01\pre\dynamic_12_l\marker_experimental.trc
DataRate	CameraRate	NumFrames	NumMarkers	Units	OrigDataRate	OrigDataStartFrame	OrigNumFrames
200	200	5	30	mm	200	1	609
Frame#	Time	C7			T10			CLAV			STRN			RBAK			LASI			RASI			SACR			RT1			RT2			RT3			RKNE			RS1			RS2			RS3			RANK			RHEE			RTOE			LT1			LT2			LT3			LKNE			LS1			LS2			LS3			LANK			LHEE			LTOE			RHJC			LHJC		
		X1	Y1	Z1	X2	Y2	Z2	X3	Y3	Z3	X4	Y4	Z4	X5	Y5	Z5	X6	Y6	Z6	X7	Y7	Z7	X8	Y8	Z8	X9	Y9	Z9	X10	Y10	Z10	X11	Y11	Z11	X12	Y12	Z12	X13	Y13	Z13	X14	Y14	Z14	X15	Y15	Z15	X16	Y16	Z16	X17	Y17	Z17	X18	Y18	Z18	X19	Y19	Z19	X20	Y20	Z20	X21	Y21	Z21	X22	Y22	Z22	X23	Y23	Z23	X24	Y24	Z24	X25	Y25	Z25	X26	Y26	Z26	X27	Y27	Z27	X28	Y28	Z28	X29	Y29	Z29	X30	Y30	Z30	

1	0.000000	-1466.089111	1231.284302	195.901199	-1515.261597	1050.758911	181.456039	-1343.553711	1179.820557	194.401321	-1307.504395	1043.866455	192.895905	-1499.449707	1160.862061	292.717621	-1361.639282	834.333008	92.805214	-1398.949951	850.675903	290.883270	-1538.424072	885.527771	160.473373	-1467.396484	648.711304	318.194061	-1516.461670	603.693909	313.676727	-1468.054932	584.298340	302.167206	-1522.420532	458.349640	279.142303	-1610.707764	348.694397	292.759552	-1646.979370	294.955994	277.388123	-1597.912720	284.441559	282.732605	-1681.915771	100.513672	240.168396	-1726.782959	101.111992	185.726456	-1548.872437	57.801891	224.357407	-1366.965210	642.821777	42.725624	-1371.001099	577.659546	48.414253	-1322.892090	595.304993	60.305237	-1283.001465	466.498688	85.707710	-1268.476318	325.626556	61.306118	-1249.773071	262.842712	71.092117	-1210.630615	296.726349	74.354919	-1165.869019	103.670227	100.331627	-1195.065918	80.930763	147.259171	-1020.797424	137.248199	112.817680	-1460.348376	792.398192	256.481890	-1433.029594	780.431964	111.449619	
2	0.005000	-1459.261841	1230.205322	195.580841	-1508.104370	1049.481689	181.529251	-1336.620972	1178.893799	194.005005	-1300.571411	1042.892456	192.791153	-1492.546631	1159.749023	292.503387	-1353.950928	833.466125	92.963943	-1392.286255	849.431885	291.285522	-1530.946777	884.327515	160.083878	-1462.149414	648.105774	318.353027	-1511.449585	603.402039	313.704895	-1463.117554	583.703918	302.489716	-1518.571899	458.014801	279.036438	-1607.475342	349.071075	292.874481	-1644.308960	295.673126	277.676086	-1595.333130	284.684113	282.767487	-1681.428955	101.517372	240.560074	-1726.369873	102.673035	186.205261	-1548.830078	57.748489	224.433640	-1358.353516	642.741699	44.108604	-1362.985840	577.140564	49.068836	-1315.087891	594.506714	61.699188	-1276.884399	465.351227	85.636513	-1262.493286	323.961609	62.553867	-1242.674072	261.591400	72.873550	-1204.035522	295.794983	74.652725	-1155.917603	103.660728	102.566124	-1183.749756	81.188988	150.258347	-1010.732544	140.290558	112.603027	-1453.440780	791.027862	256.431623	-1425.377207	779.340046	111.249298	
3	0.010000	-1452.419922	1229.199341	195.253723	-1500.928955	1048.279785	181.590240	-1329.676392	1178.042358	193.599792	-1293.599121	1042.006714	192.653870	-1485.621948	1158.708862	292.275940	-1346.240845	832.670959	93.096535	-1385.500122	848.250732	291.647125	-1523.435669	883.200256	159.726837	-1456.711182	647.510254	318.481598	-1506.237671	603.100647	313.740417	-1457.984009	583.114868	302.766663	-1514.483154	457.675598	278.989166	-1604.087524	349.490021	293.009766	-1641.498291	296.455933	277.980469	-1592.628784	284.975311	282.826721	-1680.872437	102.635918	240.981888	-1725.853027	104.386482	186.707504	-1548.763428	57.701843	224.510406	-1349.628296	642.789917	45.381859	-1354.658325	576.829773	49.692455	-1307.043091	594.024414	63.127533	-1270.518555	464.294037	85.681534	-1256.479248	322.371643	63.835850	-1235.809570	260.334106	74.669479	-1197.536743	294.729401	75.056847	-1146.743652	103.390831	104.725143	-1173.453125	81.170425	153.052032	-1001.430542	142.480774	112.790749	-1446.429352	789.731528	256.373748	-1417.694565	778.328326	111.049907	
4	0.015000	-1445.563477	1228.266357	194.919846	-1493.735107	1047.153320	181.639038	-1322.719849	1177.266235	193.185699	-1286.587646	1041.209106	192.484055	-1478.675659	1157.741333	292.035309	-1338.508789	831.947510	93.203064	-1378.591797	847.132507	291.968018	-1515.890747	882.145935	159.402252	-1451.081787	646.924866	318.579865	-1500.825806	602.789734	313.783386	-1452.654297	582.531311	302.998199	-1510.154297	457.332031	279.000671	-1600.544067	349.951385	293.165619	-1638.547363	297.304687	278.301331	-1589.799316	285.315308	282.910522	-1680.245850	103.869423	241.433853	-1725.232178	106.252525	187.233124	-1548.672241	57.661865	224.587631	-1340.791260	642.964844	46.545525	-1346.022095	576.724854	50.285187	-1298.760010	593.854980	64.588364	-1263.904785	463.327118	85.842583	-1250.432861	320.856964	65.151115	-1229.177246	259.071381	76.478584	-1191.132812	293.531006	75.567688	-1138.344727	102.861938	106.809349	-1164.172729	80.877068	155.641418	-992.889099	143.821213	113.379623	-1439.314495	788.509555	256.307677	-1409.981629	777.397127	110.850883	
5	0.020000	-1438.692505	1227.406250	194.579224	-1486.523071	1046.102417	181.675629	-1315.751465	1176.565430	192.762726	-1279.537109	1040.499756	192.281769	-1471.707764	1156.846802	291.781525	-1330.755005	831.295837	93.283745	-1371.561401	846.077454	292.248169	-1508.312134	881.164734	159.110077	-1445.260986	646.349854	318.648254	-1495.213867	602.469543	313.834076	-1447.127808	581.953613	303.184753	-1505.584595	456.983978	279.071320	-1596.844727	350.455444	293.342529	-1635.455933	298.219849	278.638977	-1586.844604	285.704468	283.019531	-1679.548340	105.218140	241.915939	-1724.505981	108.271660	187.781952	-1548.556396	57.628281	224.665176	-1331.847534	643.261780	47.600082	-1337.087402	576.819580	50.847359	-1290.245728	593.989380	66.076447	-1257.045166	462.450165	86.119125	-1244.351440	319.418335	66.497032	-1222.771606	257.804840	78.297295	-1184.819702	292.203735	76.186317	-1130.713623	102.078171	108.820518	-1155.898560	80.314804	158.029816	-985.101440	144.318878	114.365952	-1432.096628	787.362568	256.233117	-1402.238830	776.546947	110.652028	
